PathFileType	4	(X/Y/Z)	 s05c0203.trc
DataRate	CameraRate	NumFrames	NumMarkers	Units	OrigDataRate	OrigDataStartFrame	OrigNumFrames
200	200	7	47	mm	200	751	2000
Frame#	Time	racr			lacr			c7			jug			rlel			rdr			llel			ldr			s2			lic			ric			lasi			rasi			rpsi			lpsi			rgt			lgt			rth1			rth2			rth3			rth4			rlfc			rsh1			rsh2			rsh3			rsh4			rlmal			rcal			rtoe			rmt5			lth1			lth2			lth4			lth3			llfc			lmfc			lsh1			lsh2			lsh3			lsh4			llmal			lcal			ltoe			lmt5			SBIKE			LBIKE			RBIKE			
		X1	Y1	Z1	X2	Y2	Z2	X3	Y3	Z3	X4	Y4	Z4	X5	Y5	Z5	X6	Y6	Z6	X7	Y7	Z7	X8	Y8	Z8	X9	Y9	Z9	X10	Y10	Z10	X11	Y11	Z11	X12	Y12	Z12	X13	Y13	Z13	X14	Y14	Z14	X15	Y15	Z15	X16	Y16	Z16	X17	Y17	Z17	X18	Y18	Z18	X19	Y19	Z19	X20	Y20	Z20	X21	Y21	Z21	X22	Y22	Z22	X23	Y23	Z23	X24	Y24	Z24	X25	Y25	Z25	X26	Y26	Z26	X27	Y27	Z27	X28	Y28	Z28	X29	Y29	Z29	X30	Y30	Z30	X31	Y31	Z31	X32	Y32	Z32	X33	Y33	Z33	X34	Y34	Z34	X35	Y35	Z35	X36	Y36	Z36	X37	Y37	Z37	X38	Y38	Z38	X39	Y39	Z39	X40	Y40	Z40	X41	Y41	Z41	X42	Y42	Z42	X43	Y43	Z43	X44	Y44	Z44	X45	Y45	Z45	X46	Y46	Z46	X47	Y47	Z47	
751	3.7550	476.512649	1238.501109	-104.796773	502.947951	1257.204735	-358.050372	468.449614	1334.212537	-229.063003	404.721253	1184.230814	-244.666251	460.673625	1024.830026	74.078801	656.803936	958.469050	-49.761726	484.534774	1106.406255	-614.899283	663.344281	976.877783	-488.581650	-111.889272	1193.829446	-288.272838	46.039965	1193.128353	-426.382048	19.627411	1218.165777	-142.655812	82.477086	1136.063586	-382.139184	67.208292	1161.806646	-170.038877	-79.507511	1245.477331	-252.304860	-67.780822	1240.204993	-336.600467	-6.060023	1114.574221	-106.545848	-31.766032	1085.992241	-445.238309	102.609500	1076.725458	-100.506306	191.720291	1072.292000	-104.199017	264.450246	1022.782705	-107.536906	201.438226	1103.931438	-121.180612	399.391457	960.639472	-136.325238	326.488211	884.428776	-110.037801	299.710182	799.807997	-114.928814	238.238332	740.656754	-113.429348	326.709486	783.870747	-137.401250	169.422433	617.036624	-111.964426	92.006026	604.495807	-155.830698	363.019860	487.449402	-148.811761	260.321978	500.227804	-84.142691	41.352558	959.774797	-458.697123	102.097564	899.462995	-454.656949	133.742641	916.049205	-444.053763	124.288847	811.717024	-452.025791	187.120873	681.624459	-416.829869	168.482617	669.619030	-309.932871	132.560600	568.093687	-448.362044	130.908634	481.591343	-437.658600	85.307497	404.965551	-438.682941	159.889409	475.088278	-413.148716	63.705153	287.255326	-434.073441	-2.859909	264.751885	-391.925437	270.541389	154.812408	-393.959778	161.061890	162.591556	-458.790968	-258.766677	895.695386	-281.533859	-43.519210	84.968514	-474.835568	-51.875196	80.312266	-77.320226	
752	3.7600	474.949509	1237.739830	-103.176781	503.524546	1255.117927	-355.414479	467.649236	1333.440790	-227.101036	403.776902	1183.287998	-242.270811	459.794945	1023.366168	74.391683	656.506748	958.358200	-49.466629	486.823315	1107.792140	-614.710361	663.681657	976.793555	-488.101046	-112.747491	1194.845079	-289.222567	45.473581	1193.041022	-427.406577	18.485078	1219.396825	-143.508964	81.471712	1135.796765	-382.907093	65.994344	1162.363281	-170.766272	-80.215113	1246.337326	-253.300411	-68.326682	1241.013034	-337.937810	-7.303810	1115.870877	-107.354560	-32.438314	1086.209733	-445.989126	101.152174	1076.512330	-101.054372	190.254189	1070.791098	-104.698439	262.529803	1020.700612	-107.480905	200.407865	1102.288697	-121.795848	396.715524	956.548582	-136.887801	324.216792	879.188177	-110.598296	298.733191	794.068755	-115.018293	238.071842	734.051924	-113.568815	326.027432	778.577155	-137.497886	172.022604	608.877736	-111.922884	94.775408	592.875510	-155.440695	371.359619	489.636097	-148.315630	268.126046	496.864169	-83.490178	43.293020	960.461664	-458.856522	105.397720	901.698397	-453.368790	136.482887	919.021189	-442.434774	129.581289	814.421832	-449.877289	194.242668	685.296385	-415.665643	175.064854	673.586073	-308.041288	136.585634	573.030250	-447.428981	132.448492	486.554428	-436.794005	84.712012	411.296033	-438.000892	161.171144	479.236810	-412.268416	59.363377	294.293073	-433.561692	-7.714562	273.977230	-390.933505	261.670148	154.401513	-394.514433	152.235379	166.339749	-458.594326	-258.782288	895.723993	-281.393027	-43.524611	85.006087	-474.810023	-51.877299	80.326308	-77.311550	
753	3.7650	473.270694	1236.721553	-101.984658	504.059958	1253.203572	-352.853079	466.763551	1332.813801	-225.271401	402.556380	1182.886820	-241.122262	458.775597	1022.099353	74.601732	656.195401	958.368147	-49.182828	489.109593	1109.052331	-614.437786	663.944068	976.656930	-487.617734	-113.552304	1195.488030	-290.160333	44.663994	1192.707229	-428.025705	17.590679	1220.267259	-144.622920	80.433139	1135.471163	-383.598762	64.846092	1162.818078	-171.313693	-80.748472	1247.040348	-254.353236	-68.970354	1241.569032	-339.015905	-8.568058	1116.887008	-108.132266	-33.041487	1086.319147	-446.668984	99.990671	1075.779770	-101.347313	188.943646	1068.780646	-105.079158	260.410169	1017.916915	-107.443786	199.549264	1099.956813	-122.425292	393.818558	951.188875	-137.474554	321.533946	872.733519	-110.940197	297.537537	787.232794	-114.994626	237.864783	726.148855	-113.434729	325.091934	771.963013	-137.338633	174.343076	599.779362	-111.686059	97.980935	580.111346	-155.134522	379.226621	491.215562	-147.933825	275.611401	492.933534	-82.900255	45.497906	961.337394	-459.032178	109.035442	904.217490	-452.160454	139.481218	922.328669	-440.686308	135.419596	817.563503	-447.780557	201.871834	689.347002	-414.487628	181.986156	677.607623	-307.234071	141.228260	578.296065	-446.579463	134.616391	491.861633	-435.970122	84.745944	418.056925	-437.447436	163.059206	483.723516	-411.313723	55.630501	301.841989	-433.229676	-11.959372	283.813635	-390.006458	252.926769	154.427640	-395.052565	143.724706	170.633269	-458.367643	-258.770613	895.814107	-281.349263	-43.507846	85.081228	-474.802922	-51.866326	80.309271	-77.296988	
754	3.7700	471.615013	1236.431119	-100.539966	504.353727	1251.386408	-350.293357	465.776150	1332.282291	-223.592475	401.282722	1182.309817	-239.157906	457.458722	1021.060029	74.691537	655.927736	958.429760	-48.917048	491.304380	1110.327414	-614.135547	664.240533	976.499831	-487.116655	-114.330114	1195.910526	-291.023145	43.970925	1192.299478	-428.862371	16.684147	1220.805873	-145.556298	79.484774	1134.929913	-384.194757	63.985008	1163.010764	-171.640231	-81.108424	1247.586541	-255.314359	-69.565630	1241.867565	-340.050571	-9.790623	1117.300625	-109.028228	-33.593096	1086.254302	-447.394054	98.923836	1074.346374	-101.629090	187.821535	1065.982571	-105.562321	258.332730	1013.668030	-107.495549	198.960284	1096.915280	-122.958580	391.126632	945.118821	-137.892502	318.508185	865.119543	-111.021405	296.184545	779.143157	-114.882624	237.679314	717.000907	-113.037912	323.864896	764.290584	-136.933290	176.733990	589.639605	-111.698398	101.219680	566.261908	-154.839330	386.681822	492.103847	-147.209251	283.037594	488.053037	-82.263208	47.974228	962.281613	-459.122685	113.186324	907.213886	-451.584631	142.726505	925.858559	-438.888747	141.570199	821.079159	-445.839704	209.849077	693.711628	-413.496291	189.374136	681.842747	-306.630936	146.365666	583.770203	-445.700507	137.267062	497.397484	-435.117140	85.355517	425.183188	-436.967727	165.389703	488.591032	-410.438197	52.466395	309.762490	-432.871023	-15.708537	294.246769	-389.101725	244.293363	154.919256	-395.392162	135.532876	175.552661	-458.059851	-258.767382	895.793060	-280.962759	-43.500651	85.149606	-474.750105	-51.859913	80.301002	-77.264888	
755	3.7750	470.012290	1236.269835	-99.130814	504.702939	1249.792413	-347.682259	464.782323	1331.906550	-222.131316	399.235948	1181.919405	-237.697220	456.346970	1020.098839	74.644951	655.714253	958.418551	-48.701743	493.475105	1111.541072	-613.728998	664.516030	976.316588	-486.576469	-115.260946	1196.002100	-292.026018	43.252877	1191.545697	-429.452396	15.849412	1221.129987	-146.489925	78.683601	1134.214755	-385.038902	62.958094	1162.868478	-172.112053	-81.620937	1247.564447	-256.168456	-70.280937	1241.825070	-340.893867	-11.035926	1116.845754	-109.948571	-33.934881	1085.953402	-448.079809	97.871805	1072.395091	-101.855658	186.641614	1062.215654	-106.001801	256.418228	1008.644749	-107.606991	198.354093	1093.039438	-123.319707	387.592331	937.346514	-137.596389	315.727757	855.993474	-110.843261	294.824204	769.866806	-114.521611	237.567061	706.575617	-112.543883	322.849019	755.632105	-136.447273	179.356280	578.653394	-111.469385	104.800934	551.626002	-154.672718	393.573046	491.918766	-146.480277	290.189568	482.296699	-81.548123	50.801506	963.416765	-458.844096	117.247103	910.098946	-450.168379	146.010055	929.703981	-436.875575	148.015044	824.924794	-444.085357	217.945471	698.271519	-412.518663	197.028275	686.358746	-305.808702	151.823552	589.471179	-444.891654	140.273827	503.357100	-434.374829	86.338460	432.597991	-436.489138	168.009691	493.725316	-409.548406	49.718995	318.184805	-432.754217	-18.880797	305.055048	-388.701439	235.752628	155.903993	-395.599579	127.717715	180.983577	-457.766021	-258.700633	895.774883	-280.767614	-43.492400	85.169097	-474.727875	-51.855827	80.317558	-77.247293	
756	3.7800	468.497253	1236.357687	-97.794796	504.887948	1248.392733	-345.505806	463.742834	1331.639634	-220.797345	398.118794	1181.659432	-236.024990	455.269617	1019.111520	74.015493	655.443459	958.488041	-48.438393	495.526345	1112.839005	-613.258317	664.706252	976.130556	-486.068295	-116.074854	1195.551523	-292.602274	42.539333	1190.641148	-430.029993	14.968801	1221.063015	-147.331806	77.950876	1133.445596	-385.723164	63.785673	1163.282293	-170.129023	-82.250374	1247.226673	-256.957198	-70.886079	1240.968349	-341.424557	-12.482921	1116.153821	-111.107124	-34.098592	1085.439620	-448.916564	96.812420	1069.587633	-102.175116	185.492160	1057.931238	-105.825229	254.430461	1002.747939	-107.504558	197.792290	1088.466485	-123.249147	384.209982	929.482949	-137.486531	312.822418	846.321782	-110.455160	293.484297	759.545162	-113.888370	237.527006	695.066994	-112.160440	321.773293	746.070213	-135.779265	182.446233	566.397142	-111.731016	108.805809	536.411266	-154.865421	400.115044	490.800998	-145.400044	297.011383	475.867240	-80.828874	53.708086	964.693659	-458.660114	121.528704	913.257898	-448.849092	149.446735	933.658089	-434.890290	154.769704	828.962540	-442.734356	225.981060	702.999557	-411.591917	204.640973	690.775758	-304.857044	157.482687	595.280744	-444.072274	143.491838	509.499147	-433.648215	87.619764	440.311898	-436.084993	170.852940	499.149561	-408.677504	47.355030	326.812139	-432.774979	-21.677294	316.105592	-388.342453	227.255840	157.428661	-395.712212	120.276042	186.781973	-457.524366	-258.615141	895.724892	-280.578359	-43.491099	85.167591	-474.709045	-51.866083	80.304139	-77.225934	
757	3.7850	467.232343	1236.228593	-97.097147	505.268431	1247.330491	-343.660199	462.832295	1331.537624	-219.633304	397.062124	1181.299556	-234.466965	454.083335	1018.451658	73.795413	655.178241	958.458956	-48.161798	497.124706	1114.014456	-612.866971	664.818923	975.984886	-485.516089	-116.923703	1194.608861	-293.226388	42.165200	1189.570854	-430.967829	13.962004	1220.663078	-148.077953	77.399973	1132.334928	-386.432541	62.952768	1162.563469	-170.299663	-83.008566	1246.571095	-257.830472	-71.255850	1239.731510	-342.108522	-14.020605	1114.826384	-112.172096	-34.008518	1084.581445	-449.776123	95.135574	1065.945750	-102.577033	184.193184	1052.748047	-105.603887	252.116996	996.204201	-107.275112	197.122504	1083.135563	-122.888772	380.135017	920.020666	-136.650512	309.711845	835.752376	-109.635825	292.166615	748.544279	-113.186062	237.623203	682.858195	-111.839719	321.027232	735.669274	-135.188638	185.873626	553.160726	-112.440251	113.235067	520.905912	-155.523302	406.340788	488.533192	-144.057641	303.533747	468.642933	-80.202176	56.803712	966.144844	-458.347664	125.903893	916.601790	-447.538986	152.913379	937.691964	-432.882105	161.285188	833.263058	-441.182849	233.892336	707.779350	-410.771635	212.150291	695.252987	-303.917781	163.340148	601.193089	-443.242639	146.978101	515.892797	-433.104159	89.166170	448.262016	-435.792526	173.839556	504.793312	-407.935961	45.371571	335.607267	-432.973964	-24.056159	327.333981	-388.278210	218.992528	159.614674	-395.799366	113.109682	192.960446	-457.377988	-258.484637	895.628584	-280.305526	-43.463092	85.156453	-474.698412	-51.850332	80.261398	-77.234625	
